<?xml version="1.0" encoding="UTF-8" standalone="no"?>
<!DOCTYPE svg PUBLIC "-//W3C//DTD SVG 1.1//EN"
 "http://www.w3.org/Graphics/SVG/1.1/DTD/svg11.dtd">
<!-- Generated by graphviz version 2.47.0 (20210316.0004)
 -->
<!-- Title: dependencies Pages: 1 -->
<svg width="723pt" height="284pt"
 viewBox="0.00 0.00 723.00 284.00" xmlns="http://www.w3.org/2000/svg" xmlns:xlink="http://www.w3.org/1999/xlink">
<g id="graph0" class="graph" transform="scale(1 1) rotate(0) translate(4 280)">
<title>dependencies</title>
<polygon fill="white" stroke="transparent" points="-4,4 -4,-280 719,-280 719,4 -4,4"/>
<text text-anchor="start" x="336.51" y="-42.4" font-family="Times-12" font-weight="bold" font-size="14.00">Legend</text>
<polygon fill="#ffffb3" stroke="transparent" points="123.5,-10 123.5,-30 143.5,-30 143.5,-10 123.5,-10"/>
<text text-anchor="start" x="147.13" y="-15.4" font-family="Times-12" font-size="14.00"> &#160;Declarations</text>
<polygon fill="#8dd3c7" stroke="transparent" points="236.5,-10 236.5,-30 256.5,-30 256.5,-10 236.5,-10"/>
<text text-anchor="start" x="260.23" y="-15.4" font-family="Times-12" font-size="14.00"> &#160;Module</text>
<polygon fill="#80b1d3" stroke="transparent" points="322.5,-10 322.5,-30 342.5,-30 342.5,-10 322.5,-10"/>
<text text-anchor="start" x="346.28" y="-15.4" font-family="Times-12" font-size="14.00"> &#160;Bootstrap</text>
<polygon fill="#fdb462" stroke="transparent" points="419.5,-10 419.5,-30 439.5,-30 439.5,-10 419.5,-10"/>
<text text-anchor="start" x="443.17" y="-15.4" font-family="Times-12" font-size="14.00"> &#160;Providers</text>
<polygon fill="#fb8072" stroke="transparent" points="515.5,-10 515.5,-30 535.5,-30 535.5,-10 515.5,-10"/>
<text text-anchor="start" x="539.23" y="-15.4" font-family="Times-12" font-size="14.00"> &#160;Exports</text>
<g id="clust1" class="cluster">
<title>cluster_AppModule</title>
<polygon fill="none" stroke="black" stroke-dasharray="1,5" points="8,-70 8,-268 707,-268 707,-70 8,-70"/>
</g>
<g id="clust2" class="cluster">
<title>cluster_AppModule_declarations</title>
<polygon fill="none" stroke="black" points="168,-78 168,-130 699,-130 699,-78 168,-78"/>
</g>
<g id="clust7" class="cluster">
<title>cluster_AppModule_imports</title>
<polygon fill="none" stroke="black" points="16,-78 16,-130 160,-130 160,-78 16,-78"/>
</g>
<g id="clust9" class="cluster">
<title>cluster_AppModule_bootstrap</title>
<polygon fill="none" stroke="black" points="303,-208 303,-260 427,-260 427,-208 303,-208"/>
</g>
<!-- AppComponent -->
<g id="node1" class="node">
<title>AppComponent</title>
<polygon fill="#ffffb3" stroke="black" points="690.94,-122 585.06,-122 585.06,-86 690.94,-86 690.94,-122"/>
<text text-anchor="middle" x="638" y="-99.8" font-family="Times,serif" font-size="14.00">AppComponent</text>
</g>
<!-- AppModule -->
<g id="node5" class="node">
<title>AppModule</title>
<polygon fill="#8dd3c7" stroke="black" points="406.66,-187 403.66,-191 382.66,-191 379.66,-187 323.34,-187 323.34,-151 406.66,-151 406.66,-187"/>
<text text-anchor="middle" x="365" y="-164.8" font-family="Times,serif" font-size="14.00">AppModule</text>
</g>
<!-- AppComponent&#45;&gt;AppModule -->
<g id="edge1" class="edge">
<title>AppComponent&#45;&gt;AppModule</title>
<path fill="none" stroke="black" d="M638,-122.28C638,-143.32 638,-175 638,-175 638,-175 416.76,-175 416.76,-175"/>
<polygon fill="black" stroke="black" points="416.76,-171.5 406.76,-175 416.76,-178.5 416.76,-171.5"/>
</g>
<!-- ChatbotComponent -->
<g id="node2" class="node">
<title>ChatbotComponent</title>
<polygon fill="#ffffb3" stroke="black" points="566.67,-122 441.33,-122 441.33,-86 566.67,-86 566.67,-122"/>
<text text-anchor="middle" x="504" y="-99.8" font-family="Times,serif" font-size="14.00">ChatbotComponent</text>
</g>
<!-- ChatbotComponent&#45;&gt;AppModule -->
<g id="edge2" class="edge">
<title>ChatbotComponent&#45;&gt;AppModule</title>
<path fill="none" stroke="black" d="M504,-122.02C504,-139.37 504,-163 504,-163 504,-163 416.7,-163 416.7,-163"/>
<polygon fill="black" stroke="black" points="416.7,-159.5 406.7,-163 416.7,-166.5 416.7,-159.5"/>
</g>
<!-- HomeComponent -->
<g id="node3" class="node">
<title>HomeComponent</title>
<polygon fill="#ffffb3" stroke="black" points="422.55,-122 307.45,-122 307.45,-86 422.55,-86 422.55,-122"/>
<text text-anchor="middle" x="365" y="-99.8" font-family="Times,serif" font-size="14.00">HomeComponent</text>
</g>
<!-- HomeComponent&#45;&gt;AppModule -->
<g id="edge3" class="edge">
<title>HomeComponent&#45;&gt;AppModule</title>
<path fill="none" stroke="black" d="M365,-122.11C365,-122.11 365,-140.99 365,-140.99"/>
<polygon fill="black" stroke="black" points="361.5,-140.99 365,-150.99 368.5,-140.99 361.5,-140.99"/>
</g>
<!-- NewsComponent -->
<g id="node4" class="node">
<title>NewsComponent</title>
<polygon fill="#ffffb3" stroke="black" points="289.7,-122 176.3,-122 176.3,-86 289.7,-86 289.7,-122"/>
<text text-anchor="middle" x="233" y="-99.8" font-family="Times,serif" font-size="14.00">NewsComponent</text>
</g>
<!-- NewsComponent&#45;&gt;AppModule -->
<g id="edge4" class="edge">
<title>NewsComponent&#45;&gt;AppModule</title>
<path fill="none" stroke="black" d="M233,-122.02C233,-139.37 233,-163 233,-163 233,-163 313.23,-163 313.23,-163"/>
<polygon fill="black" stroke="black" points="313.23,-166.5 323.23,-163 313.23,-159.5 313.23,-166.5"/>
</g>
<!-- AppComponent  -->
<g id="node7" class="node">
<title>AppComponent </title>
<polygon fill="#80b1d3" stroke="black" points="419.44,-252 310.56,-252 310.56,-216 419.44,-216 419.44,-252"/>
<text text-anchor="middle" x="365" y="-229.8" font-family="Times,serif" font-size="14.00">AppComponent </text>
</g>
<!-- AppModule&#45;&gt;AppComponent  -->
<g id="edge6" class="edge">
<title>AppModule&#45;&gt;AppComponent </title>
<path fill="none" stroke="black" stroke-dasharray="1,5" d="M365,-187.11C365,-187.11 365,-205.99 365,-205.99"/>
<polygon fill="black" stroke="black" points="361.5,-205.99 365,-215.99 368.5,-205.99 361.5,-205.99"/>
</g>
<!-- AppRoutingModule -->
<g id="node6" class="node">
<title>AppRoutingModule</title>
<polygon fill="#8dd3c7" stroke="black" points="152.27,-122 149.27,-126 128.27,-126 125.27,-122 23.73,-122 23.73,-86 152.27,-86 152.27,-122"/>
<text text-anchor="middle" x="88" y="-99.8" font-family="Times,serif" font-size="14.00">AppRoutingModule</text>
</g>
<!-- AppRoutingModule&#45;&gt;AppModule -->
<g id="edge5" class="edge">
<title>AppRoutingModule&#45;&gt;AppModule</title>
<path fill="none" stroke="black" d="M88,-122.28C88,-143.32 88,-175 88,-175 88,-175 313.23,-175 313.23,-175"/>
<polygon fill="black" stroke="black" points="313.23,-178.5 323.23,-175 313.23,-171.5 313.23,-178.5"/>
</g>
</g>
</svg>
